%TF.GenerationSoftware,KiCad,Pcbnew,(5.1.10)-1*%
%TF.CreationDate,2021-10-29T11:24:14-05:00*%
%TF.ProjectId,Capstone,43617073-746f-46e6-952e-6b696361645f,rev?*%
%TF.SameCoordinates,Original*%
%TF.FileFunction,Copper,L1,Top*%
%TF.FilePolarity,Positive*%
%FSLAX46Y46*%
G04 Gerber Fmt 4.6, Leading zero omitted, Abs format (unit mm)*
G04 Created by KiCad (PCBNEW (5.1.10)-1) date 2021-10-29 11:24:14*
%MOMM*%
%LPD*%
G01*
G04 APERTURE LIST*
%TA.AperFunction,SMDPad,CuDef*%
%ADD10R,2.400000X2.000000*%
%TD*%
%TA.AperFunction,SMDPad,CuDef*%
%ADD11R,6.400000X5.800000*%
%TD*%
%TA.AperFunction,SMDPad,CuDef*%
%ADD12R,2.200000X1.200000*%
%TD*%
%TA.AperFunction,ComponentPad*%
%ADD13O,1.600000X1.600000*%
%TD*%
%TA.AperFunction,ComponentPad*%
%ADD14R,1.600000X1.600000*%
%TD*%
%TA.AperFunction,ComponentPad*%
%ADD15O,1.700000X1.700000*%
%TD*%
%TA.AperFunction,ComponentPad*%
%ADD16R,1.700000X1.700000*%
%TD*%
%TA.AperFunction,SMDPad,CuDef*%
%ADD17R,0.450000X1.380000*%
%TD*%
%TA.AperFunction,SMDPad,CuDef*%
%ADD18R,1.425000X1.550000*%
%TD*%
%TA.AperFunction,SMDPad,CuDef*%
%ADD19R,1.650000X1.300000*%
%TD*%
%TA.AperFunction,SMDPad,CuDef*%
%ADD20R,1.800000X1.900000*%
%TD*%
%TA.AperFunction,SMDPad,CuDef*%
%ADD21R,1.000000X1.900000*%
%TD*%
%TA.AperFunction,ViaPad*%
%ADD22C,0.800000*%
%TD*%
%TA.AperFunction,Conductor*%
%ADD23C,0.200000*%
%TD*%
%TA.AperFunction,Conductor*%
%ADD24C,0.500000*%
%TD*%
%TA.AperFunction,Conductor*%
%ADD25C,0.250000*%
%TD*%
%TA.AperFunction,Conductor*%
%ADD26C,0.300000*%
%TD*%
G04 APERTURE END LIST*
D10*
%TO.P,Y1,2*%
%TO.N,Net-(C8-Pad1)*%
X138430000Y-54030000D03*
%TO.P,Y1,1*%
%TO.N,Net-(C6-Pad1)*%
X138430000Y-57730000D03*
%TD*%
D11*
%TO.P,U5,2*%
%TO.N,+3V3*%
X163425000Y-60705000D03*
D12*
%TO.P,U5,3*%
%TO.N,+5V*%
X169725000Y-58425000D03*
%TO.P,U5,2*%
%TO.N,+3V3*%
X169725000Y-60705000D03*
%TO.P,U5,1*%
%TO.N,GND*%
X169725000Y-62985000D03*
%TD*%
D13*
%TO.P,U3,8*%
%TO.N,Net-(U3-Pad8)*%
X124460000Y-71120000D03*
%TO.P,U3,4*%
%TO.N,-9V*%
X134620000Y-63500000D03*
%TO.P,U3,7*%
%TO.N,+9V*%
X124460000Y-68580000D03*
%TO.P,U3,3*%
%TO.N,GND*%
X134620000Y-66040000D03*
%TO.P,U3,6*%
%TO.N,AUDIO_OUT*%
X124460000Y-66040000D03*
%TO.P,U3,2*%
%TO.N,IO*%
X134620000Y-68580000D03*
%TO.P,U3,5*%
%TO.N,Net-(U3-Pad5)*%
X124460000Y-63500000D03*
D14*
%TO.P,U3,1*%
%TO.N,Net-(U3-Pad1)*%
X134620000Y-71120000D03*
%TD*%
%TO.P,R9,2*%
%TO.N,Net-(C9-Pad1)*%
%TA.AperFunction,SMDPad,CuDef*%
G36*
G01*
X133862500Y-60509999D02*
X133862500Y-61410001D01*
G75*
G02*
X133612501Y-61660000I-249999J0D01*
G01*
X133087499Y-61660000D01*
G75*
G02*
X132837500Y-61410001I0J249999D01*
G01*
X132837500Y-60509999D01*
G75*
G02*
X133087499Y-60260000I249999J0D01*
G01*
X133612501Y-60260000D01*
G75*
G02*
X133862500Y-60509999I0J-249999D01*
G01*
G37*
%TD.AperFunction*%
%TO.P,R9,1*%
%TO.N,+3V3*%
%TA.AperFunction,SMDPad,CuDef*%
G36*
G01*
X135687500Y-60509999D02*
X135687500Y-61410001D01*
G75*
G02*
X135437501Y-61660000I-249999J0D01*
G01*
X134912499Y-61660000D01*
G75*
G02*
X134662500Y-61410001I0J249999D01*
G01*
X134662500Y-60509999D01*
G75*
G02*
X134912499Y-60260000I249999J0D01*
G01*
X135437501Y-60260000D01*
G75*
G02*
X135687500Y-60509999I0J-249999D01*
G01*
G37*
%TD.AperFunction*%
%TD*%
%TO.P,R8,2*%
%TO.N,Net-(J5-Pad7)*%
%TA.AperFunction,SMDPad,CuDef*%
G36*
G01*
X165970000Y-77019999D02*
X165970000Y-77920001D01*
G75*
G02*
X165720001Y-78170000I-249999J0D01*
G01*
X165194999Y-78170000D01*
G75*
G02*
X164945000Y-77920001I0J249999D01*
G01*
X164945000Y-77019999D01*
G75*
G02*
X165194999Y-76770000I249999J0D01*
G01*
X165720001Y-76770000D01*
G75*
G02*
X165970000Y-77019999I0J-249999D01*
G01*
G37*
%TD.AperFunction*%
%TO.P,R8,1*%
%TO.N,GND*%
%TA.AperFunction,SMDPad,CuDef*%
G36*
G01*
X167795000Y-77019999D02*
X167795000Y-77920001D01*
G75*
G02*
X167545001Y-78170000I-249999J0D01*
G01*
X167019999Y-78170000D01*
G75*
G02*
X166770000Y-77920001I0J249999D01*
G01*
X166770000Y-77019999D01*
G75*
G02*
X167019999Y-76770000I249999J0D01*
G01*
X167545001Y-76770000D01*
G75*
G02*
X167795000Y-77019999I0J-249999D01*
G01*
G37*
%TD.AperFunction*%
%TD*%
%TO.P,R7,2*%
%TO.N,IO*%
%TA.AperFunction,SMDPad,CuDef*%
G36*
G01*
X134107500Y-75380001D02*
X134107500Y-74479999D01*
G75*
G02*
X134357499Y-74230000I249999J0D01*
G01*
X134882501Y-74230000D01*
G75*
G02*
X135132500Y-74479999I0J-249999D01*
G01*
X135132500Y-75380001D01*
G75*
G02*
X134882501Y-75630000I-249999J0D01*
G01*
X134357499Y-75630000D01*
G75*
G02*
X134107500Y-75380001I0J249999D01*
G01*
G37*
%TD.AperFunction*%
%TO.P,R7,1*%
%TO.N,AUDIO_OUT*%
%TA.AperFunction,SMDPad,CuDef*%
G36*
G01*
X132282500Y-75380001D02*
X132282500Y-74479999D01*
G75*
G02*
X132532499Y-74230000I249999J0D01*
G01*
X133057501Y-74230000D01*
G75*
G02*
X133307500Y-74479999I0J-249999D01*
G01*
X133307500Y-75380001D01*
G75*
G02*
X133057501Y-75630000I-249999J0D01*
G01*
X132532499Y-75630000D01*
G75*
G02*
X132282500Y-75380001I0J249999D01*
G01*
G37*
%TD.AperFunction*%
%TD*%
%TO.P,R6,2*%
%TO.N,GND*%
%TA.AperFunction,SMDPad,CuDef*%
G36*
G01*
X141840000Y-69399999D02*
X141840000Y-70300001D01*
G75*
G02*
X141590001Y-70550000I-249999J0D01*
G01*
X141064999Y-70550000D01*
G75*
G02*
X140815000Y-70300001I0J249999D01*
G01*
X140815000Y-69399999D01*
G75*
G02*
X141064999Y-69150000I249999J0D01*
G01*
X141590001Y-69150000D01*
G75*
G02*
X141840000Y-69399999I0J-249999D01*
G01*
G37*
%TD.AperFunction*%
%TO.P,R6,1*%
%TO.N,Net-(R6-Pad1)*%
%TA.AperFunction,SMDPad,CuDef*%
G36*
G01*
X143665000Y-69399999D02*
X143665000Y-70300001D01*
G75*
G02*
X143415001Y-70550000I-249999J0D01*
G01*
X142889999Y-70550000D01*
G75*
G02*
X142640000Y-70300001I0J249999D01*
G01*
X142640000Y-69399999D01*
G75*
G02*
X142889999Y-69150000I249999J0D01*
G01*
X143415001Y-69150000D01*
G75*
G02*
X143665000Y-69399999I0J-249999D01*
G01*
G37*
%TD.AperFunction*%
%TD*%
%TO.P,R5,2*%
%TO.N,PA12*%
%TA.AperFunction,SMDPad,CuDef*%
G36*
G01*
X157029999Y-57550000D02*
X157930001Y-57550000D01*
G75*
G02*
X158180000Y-57799999I0J-249999D01*
G01*
X158180000Y-58325001D01*
G75*
G02*
X157930001Y-58575000I-249999J0D01*
G01*
X157029999Y-58575000D01*
G75*
G02*
X156780000Y-58325001I0J249999D01*
G01*
X156780000Y-57799999D01*
G75*
G02*
X157029999Y-57550000I249999J0D01*
G01*
G37*
%TD.AperFunction*%
%TO.P,R5,1*%
%TO.N,+3V3*%
%TA.AperFunction,SMDPad,CuDef*%
G36*
G01*
X157029999Y-55725000D02*
X157930001Y-55725000D01*
G75*
G02*
X158180000Y-55974999I0J-249999D01*
G01*
X158180000Y-56500001D01*
G75*
G02*
X157930001Y-56750000I-249999J0D01*
G01*
X157029999Y-56750000D01*
G75*
G02*
X156780000Y-56500001I0J249999D01*
G01*
X156780000Y-55974999D01*
G75*
G02*
X157029999Y-55725000I249999J0D01*
G01*
G37*
%TD.AperFunction*%
%TD*%
%TO.P,R4,2*%
%TO.N,+3V3*%
%TA.AperFunction,SMDPad,CuDef*%
G36*
G01*
X156445000Y-63049999D02*
X156445000Y-63950001D01*
G75*
G02*
X156195001Y-64200000I-249999J0D01*
G01*
X155669999Y-64200000D01*
G75*
G02*
X155420000Y-63950001I0J249999D01*
G01*
X155420000Y-63049999D01*
G75*
G02*
X155669999Y-62800000I249999J0D01*
G01*
X156195001Y-62800000D01*
G75*
G02*
X156445000Y-63049999I0J-249999D01*
G01*
G37*
%TD.AperFunction*%
%TO.P,R4,1*%
%TO.N,RX1*%
%TA.AperFunction,SMDPad,CuDef*%
G36*
G01*
X158270000Y-63049999D02*
X158270000Y-63950001D01*
G75*
G02*
X158020001Y-64200000I-249999J0D01*
G01*
X157494999Y-64200000D01*
G75*
G02*
X157245000Y-63950001I0J249999D01*
G01*
X157245000Y-63049999D01*
G75*
G02*
X157494999Y-62800000I249999J0D01*
G01*
X158020001Y-62800000D01*
G75*
G02*
X158270000Y-63049999I0J-249999D01*
G01*
G37*
%TD.AperFunction*%
%TD*%
%TO.P,R3,2*%
%TO.N,Net-(R3-Pad2)*%
%TA.AperFunction,SMDPad,CuDef*%
G36*
G01*
X145650000Y-69399999D02*
X145650000Y-70300001D01*
G75*
G02*
X145400001Y-70550000I-249999J0D01*
G01*
X144874999Y-70550000D01*
G75*
G02*
X144625000Y-70300001I0J249999D01*
G01*
X144625000Y-69399999D01*
G75*
G02*
X144874999Y-69150000I249999J0D01*
G01*
X145400001Y-69150000D01*
G75*
G02*
X145650000Y-69399999I0J-249999D01*
G01*
G37*
%TD.AperFunction*%
%TO.P,R3,1*%
%TO.N,+3V3*%
%TA.AperFunction,SMDPad,CuDef*%
G36*
G01*
X147475000Y-69399999D02*
X147475000Y-70300001D01*
G75*
G02*
X147225001Y-70550000I-249999J0D01*
G01*
X146699999Y-70550000D01*
G75*
G02*
X146450000Y-70300001I0J249999D01*
G01*
X146450000Y-69399999D01*
G75*
G02*
X146699999Y-69150000I249999J0D01*
G01*
X147225001Y-69150000D01*
G75*
G02*
X147475000Y-69399999I0J-249999D01*
G01*
G37*
%TD.AperFunction*%
%TD*%
%TO.P,R2,2*%
%TO.N,Net-(J2-Pad3)*%
%TA.AperFunction,SMDPad,CuDef*%
G36*
G01*
X160777500Y-56330001D02*
X160777500Y-55429999D01*
G75*
G02*
X161027499Y-55180000I249999J0D01*
G01*
X161552501Y-55180000D01*
G75*
G02*
X161802500Y-55429999I0J-249999D01*
G01*
X161802500Y-56330001D01*
G75*
G02*
X161552501Y-56580000I-249999J0D01*
G01*
X161027499Y-56580000D01*
G75*
G02*
X160777500Y-56330001I0J249999D01*
G01*
G37*
%TD.AperFunction*%
%TO.P,R2,1*%
%TO.N,PA12*%
%TA.AperFunction,SMDPad,CuDef*%
G36*
G01*
X158952500Y-56330001D02*
X158952500Y-55429999D01*
G75*
G02*
X159202499Y-55180000I249999J0D01*
G01*
X159727501Y-55180000D01*
G75*
G02*
X159977500Y-55429999I0J-249999D01*
G01*
X159977500Y-56330001D01*
G75*
G02*
X159727501Y-56580000I-249999J0D01*
G01*
X159202499Y-56580000D01*
G75*
G02*
X158952500Y-56330001I0J249999D01*
G01*
G37*
%TD.AperFunction*%
%TD*%
%TO.P,R1,2*%
%TO.N,Net-(J2-Pad2)*%
%TA.AperFunction,SMDPad,CuDef*%
G36*
G01*
X157522500Y-61410001D02*
X157522500Y-60509999D01*
G75*
G02*
X157772499Y-60260000I249999J0D01*
G01*
X158297501Y-60260000D01*
G75*
G02*
X158547500Y-60509999I0J-249999D01*
G01*
X158547500Y-61410001D01*
G75*
G02*
X158297501Y-61660000I-249999J0D01*
G01*
X157772499Y-61660000D01*
G75*
G02*
X157522500Y-61410001I0J249999D01*
G01*
G37*
%TD.AperFunction*%
%TO.P,R1,1*%
%TO.N,PA11*%
%TA.AperFunction,SMDPad,CuDef*%
G36*
G01*
X155697500Y-61410001D02*
X155697500Y-60509999D01*
G75*
G02*
X155947499Y-60260000I249999J0D01*
G01*
X156472501Y-60260000D01*
G75*
G02*
X156722500Y-60509999I0J-249999D01*
G01*
X156722500Y-61410001D01*
G75*
G02*
X156472501Y-61660000I-249999J0D01*
G01*
X155947499Y-61660000D01*
G75*
G02*
X155697500Y-61410001I0J249999D01*
G01*
G37*
%TD.AperFunction*%
%TD*%
D15*
%TO.P,J8,2*%
%TO.N,MIDI5*%
X170180000Y-74930000D03*
D16*
%TO.P,J8,1*%
%TO.N,MIDI4*%
X170180000Y-77470000D03*
%TD*%
%TO.P,J7,1*%
%TO.N,AUDIO_OUT*%
X132080000Y-81280000D03*
%TD*%
D15*
%TO.P,J6,5*%
%TO.N,GND*%
X162560000Y-77470000D03*
%TO.P,J6,4*%
%TO.N,+3V3*%
X160020000Y-77470000D03*
%TO.P,J6,3*%
%TO.N,GPIOB11*%
X157480000Y-77470000D03*
%TO.P,J6,2*%
%TO.N,GPIOB10*%
X154940000Y-77470000D03*
D16*
%TO.P,J6,1*%
%TO.N,GPIOB9*%
X152400000Y-77470000D03*
%TD*%
D15*
%TO.P,J5,8*%
%TO.N,GND*%
X167640000Y-81280000D03*
%TO.P,J5,7*%
%TO.N,Net-(J5-Pad7)*%
X165100000Y-81280000D03*
%TO.P,J5,6*%
%TO.N,+3V3*%
X162560000Y-81280000D03*
%TO.P,J5,5*%
%TO.N,SPI_SCK2*%
X160020000Y-81280000D03*
%TO.P,J5,4*%
%TO.N,SPI_MOSI2*%
X157480000Y-81280000D03*
%TO.P,J5,3*%
%TO.N,LCD_DC*%
X154940000Y-81280000D03*
%TO.P,J5,2*%
%TO.N,SPI_NSS2*%
X152400000Y-81280000D03*
D16*
%TO.P,J5,1*%
%TO.N,LCD_RST*%
X149860000Y-81280000D03*
%TD*%
D15*
%TO.P,J4,6*%
%TO.N,I2C_SDA1*%
X135890000Y-50800000D03*
%TO.P,J4,5*%
%TO.N,I2C_SCL1*%
X138430000Y-50800000D03*
%TO.P,J4,4*%
%TO.N,SPI_MOSI1*%
X140970000Y-50800000D03*
%TO.P,J4,3*%
%TO.N,SPI_MISO1*%
X143510000Y-50800000D03*
%TO.P,J4,2*%
%TO.N,SPI_SCK1*%
X146050000Y-50800000D03*
D16*
%TO.P,J4,1*%
%TO.N,SPI_NSS1*%
X148590000Y-50800000D03*
%TD*%
D15*
%TO.P,J3,4*%
%TO.N,GND*%
X152400000Y-50800000D03*
%TO.P,J3,3*%
%TO.N,SWCLK*%
X154940000Y-50800000D03*
%TO.P,J3,2*%
%TO.N,SWDIO*%
X157480000Y-50800000D03*
D16*
%TO.P,J3,1*%
%TO.N,+3V3*%
X160020000Y-50800000D03*
%TD*%
D17*
%TO.P,J2,1*%
%TO.N,Net-(D2-Pad2)*%
X168940000Y-53530000D03*
%TO.P,J2,2*%
%TO.N,Net-(J2-Pad2)*%
X168290000Y-53530000D03*
%TO.P,J2,3*%
%TO.N,Net-(J2-Pad3)*%
X167640000Y-53530000D03*
%TO.P,J2,4*%
%TO.N,Net-(J2-Pad4)*%
X166990000Y-53530000D03*
%TO.P,J2,5*%
%TO.N,GND*%
X166340000Y-53530000D03*
D18*
%TO.P,J2,6*%
X170127500Y-53445000D03*
X165152500Y-53445000D03*
D19*
X171015000Y-50870000D03*
X164265000Y-50870000D03*
D20*
X168790000Y-50870000D03*
D21*
X166090000Y-50870000D03*
%TD*%
D15*
%TO.P,J1,4*%
%TO.N,-9V*%
X137160000Y-81280000D03*
%TO.P,J1,3*%
%TO.N,GND*%
X139700000Y-81280000D03*
%TO.P,J1,2*%
%TO.N,Net-(D1-Pad2)*%
X142240000Y-81280000D03*
D16*
%TO.P,J1,1*%
%TO.N,+9V*%
X144780000Y-81280000D03*
%TD*%
%TO.P,D2,2*%
%TO.N,Net-(D2-Pad2)*%
%TA.AperFunction,SMDPad,CuDef*%
G36*
G01*
X170955000Y-56505000D02*
X170955000Y-55255000D01*
G75*
G02*
X171205000Y-55005000I250000J0D01*
G01*
X171955000Y-55005000D01*
G75*
G02*
X172205000Y-55255000I0J-250000D01*
G01*
X172205000Y-56505000D01*
G75*
G02*
X171955000Y-56755000I-250000J0D01*
G01*
X171205000Y-56755000D01*
G75*
G02*
X170955000Y-56505000I0J250000D01*
G01*
G37*
%TD.AperFunction*%
%TO.P,D2,1*%
%TO.N,+5V*%
%TA.AperFunction,SMDPad,CuDef*%
G36*
G01*
X168155000Y-56505000D02*
X168155000Y-55255000D01*
G75*
G02*
X168405000Y-55005000I250000J0D01*
G01*
X169155000Y-55005000D01*
G75*
G02*
X169405000Y-55255000I0J-250000D01*
G01*
X169405000Y-56505000D01*
G75*
G02*
X169155000Y-56755000I-250000J0D01*
G01*
X168405000Y-56755000D01*
G75*
G02*
X168155000Y-56505000I0J250000D01*
G01*
G37*
%TD.AperFunction*%
%TD*%
%TO.P,D1,2*%
%TO.N,Net-(D1-Pad2)*%
%TA.AperFunction,SMDPad,CuDef*%
G36*
G01*
X145555000Y-78095000D02*
X145555000Y-76845000D01*
G75*
G02*
X145805000Y-76595000I250000J0D01*
G01*
X146555000Y-76595000D01*
G75*
G02*
X146805000Y-76845000I0J-250000D01*
G01*
X146805000Y-78095000D01*
G75*
G02*
X146555000Y-78345000I-250000J0D01*
G01*
X145805000Y-78345000D01*
G75*
G02*
X145555000Y-78095000I0J250000D01*
G01*
G37*
%TD.AperFunction*%
%TO.P,D1,1*%
%TO.N,+5V*%
%TA.AperFunction,SMDPad,CuDef*%
G36*
G01*
X142755000Y-78095000D02*
X142755000Y-76845000D01*
G75*
G02*
X143005000Y-76595000I250000J0D01*
G01*
X143755000Y-76595000D01*
G75*
G02*
X144005000Y-76845000I0J-250000D01*
G01*
X144005000Y-78095000D01*
G75*
G02*
X143755000Y-78345000I-250000J0D01*
G01*
X143005000Y-78345000D01*
G75*
G02*
X142755000Y-78095000I0J250000D01*
G01*
G37*
%TD.AperFunction*%
%TD*%
%TO.P,C10,2*%
%TO.N,GND*%
%TA.AperFunction,SMDPad,CuDef*%
G36*
G01*
X167165000Y-66810000D02*
X168115000Y-66810000D01*
G75*
G02*
X168365000Y-67060000I0J-250000D01*
G01*
X168365000Y-67560000D01*
G75*
G02*
X168115000Y-67810000I-250000J0D01*
G01*
X167165000Y-67810000D01*
G75*
G02*
X166915000Y-67560000I0J250000D01*
G01*
X166915000Y-67060000D01*
G75*
G02*
X167165000Y-66810000I250000J0D01*
G01*
G37*
%TD.AperFunction*%
%TO.P,C10,1*%
%TO.N,+3V3*%
%TA.AperFunction,SMDPad,CuDef*%
G36*
G01*
X167165000Y-64910000D02*
X168115000Y-64910000D01*
G75*
G02*
X168365000Y-65160000I0J-250000D01*
G01*
X168365000Y-65660000D01*
G75*
G02*
X168115000Y-65910000I-250000J0D01*
G01*
X167165000Y-65910000D01*
G75*
G02*
X166915000Y-65660000I0J250000D01*
G01*
X166915000Y-65160000D01*
G75*
G02*
X167165000Y-64910000I250000J0D01*
G01*
G37*
%TD.AperFunction*%
%TD*%
%TO.P,C9,2*%
%TO.N,GND*%
%TA.AperFunction,SMDPad,CuDef*%
G36*
G01*
X130965000Y-57970000D02*
X130015000Y-57970000D01*
G75*
G02*
X129765000Y-57720000I0J250000D01*
G01*
X129765000Y-57220000D01*
G75*
G02*
X130015000Y-56970000I250000J0D01*
G01*
X130965000Y-56970000D01*
G75*
G02*
X131215000Y-57220000I0J-250000D01*
G01*
X131215000Y-57720000D01*
G75*
G02*
X130965000Y-57970000I-250000J0D01*
G01*
G37*
%TD.AperFunction*%
%TO.P,C9,1*%
%TO.N,Net-(C9-Pad1)*%
%TA.AperFunction,SMDPad,CuDef*%
G36*
G01*
X130965000Y-59870000D02*
X130015000Y-59870000D01*
G75*
G02*
X129765000Y-59620000I0J250000D01*
G01*
X129765000Y-59120000D01*
G75*
G02*
X130015000Y-58870000I250000J0D01*
G01*
X130965000Y-58870000D01*
G75*
G02*
X131215000Y-59120000I0J-250000D01*
G01*
X131215000Y-59620000D01*
G75*
G02*
X130965000Y-59870000I-250000J0D01*
G01*
G37*
%TD.AperFunction*%
%TD*%
%TO.P,C8,2*%
%TO.N,GND*%
%TA.AperFunction,SMDPad,CuDef*%
G36*
G01*
X134170000Y-54135000D02*
X134170000Y-55085000D01*
G75*
G02*
X133920000Y-55335000I-250000J0D01*
G01*
X133420000Y-55335000D01*
G75*
G02*
X133170000Y-55085000I0J250000D01*
G01*
X133170000Y-54135000D01*
G75*
G02*
X133420000Y-53885000I250000J0D01*
G01*
X133920000Y-53885000D01*
G75*
G02*
X134170000Y-54135000I0J-250000D01*
G01*
G37*
%TD.AperFunction*%
%TO.P,C8,1*%
%TO.N,Net-(C8-Pad1)*%
%TA.AperFunction,SMDPad,CuDef*%
G36*
G01*
X136070000Y-54135000D02*
X136070000Y-55085000D01*
G75*
G02*
X135820000Y-55335000I-250000J0D01*
G01*
X135320000Y-55335000D01*
G75*
G02*
X135070000Y-55085000I0J250000D01*
G01*
X135070000Y-54135000D01*
G75*
G02*
X135320000Y-53885000I250000J0D01*
G01*
X135820000Y-53885000D01*
G75*
G02*
X136070000Y-54135000I0J-250000D01*
G01*
G37*
%TD.AperFunction*%
%TD*%
%TO.P,C7,2*%
%TO.N,GND*%
%TA.AperFunction,SMDPad,CuDef*%
G36*
G01*
X138930000Y-76995000D02*
X138930000Y-77945000D01*
G75*
G02*
X138680000Y-78195000I-250000J0D01*
G01*
X138180000Y-78195000D01*
G75*
G02*
X137930000Y-77945000I0J250000D01*
G01*
X137930000Y-76995000D01*
G75*
G02*
X138180000Y-76745000I250000J0D01*
G01*
X138680000Y-76745000D01*
G75*
G02*
X138930000Y-76995000I0J-250000D01*
G01*
G37*
%TD.AperFunction*%
%TO.P,C7,1*%
%TO.N,+5V*%
%TA.AperFunction,SMDPad,CuDef*%
G36*
G01*
X140830000Y-76995000D02*
X140830000Y-77945000D01*
G75*
G02*
X140580000Y-78195000I-250000J0D01*
G01*
X140080000Y-78195000D01*
G75*
G02*
X139830000Y-77945000I0J250000D01*
G01*
X139830000Y-76995000D01*
G75*
G02*
X140080000Y-76745000I250000J0D01*
G01*
X140580000Y-76745000D01*
G75*
G02*
X140830000Y-76995000I0J-250000D01*
G01*
G37*
%TD.AperFunction*%
%TD*%
%TO.P,C6,2*%
%TO.N,GND*%
%TA.AperFunction,SMDPad,CuDef*%
G36*
G01*
X133850000Y-56675000D02*
X133850000Y-57625000D01*
G75*
G02*
X133600000Y-57875000I-250000J0D01*
G01*
X133100000Y-57875000D01*
G75*
G02*
X132850000Y-57625000I0J250000D01*
G01*
X132850000Y-56675000D01*
G75*
G02*
X133100000Y-56425000I250000J0D01*
G01*
X133600000Y-56425000D01*
G75*
G02*
X133850000Y-56675000I0J-250000D01*
G01*
G37*
%TD.AperFunction*%
%TO.P,C6,1*%
%TO.N,Net-(C6-Pad1)*%
%TA.AperFunction,SMDPad,CuDef*%
G36*
G01*
X135750000Y-56675000D02*
X135750000Y-57625000D01*
G75*
G02*
X135500000Y-57875000I-250000J0D01*
G01*
X135000000Y-57875000D01*
G75*
G02*
X134750000Y-57625000I0J250000D01*
G01*
X134750000Y-56675000D01*
G75*
G02*
X135000000Y-56425000I250000J0D01*
G01*
X135500000Y-56425000D01*
G75*
G02*
X135750000Y-56675000I0J-250000D01*
G01*
G37*
%TD.AperFunction*%
%TD*%
%TO.P,C5,2*%
%TO.N,GND*%
%TA.AperFunction,SMDPad,CuDef*%
G36*
G01*
X151630000Y-65565000D02*
X151630000Y-66515000D01*
G75*
G02*
X151380000Y-66765000I-250000J0D01*
G01*
X150880000Y-66765000D01*
G75*
G02*
X150630000Y-66515000I0J250000D01*
G01*
X150630000Y-65565000D01*
G75*
G02*
X150880000Y-65315000I250000J0D01*
G01*
X151380000Y-65315000D01*
G75*
G02*
X151630000Y-65565000I0J-250000D01*
G01*
G37*
%TD.AperFunction*%
%TO.P,C5,1*%
%TO.N,+3V3*%
%TA.AperFunction,SMDPad,CuDef*%
G36*
G01*
X153530000Y-65565000D02*
X153530000Y-66515000D01*
G75*
G02*
X153280000Y-66765000I-250000J0D01*
G01*
X152780000Y-66765000D01*
G75*
G02*
X152530000Y-66515000I0J250000D01*
G01*
X152530000Y-65565000D01*
G75*
G02*
X152780000Y-65315000I250000J0D01*
G01*
X153280000Y-65315000D01*
G75*
G02*
X153530000Y-65565000I0J-250000D01*
G01*
G37*
%TD.AperFunction*%
%TD*%
%TO.P,C4,2*%
%TO.N,GND*%
%TA.AperFunction,SMDPad,CuDef*%
G36*
G01*
X140175000Y-60510000D02*
X139225000Y-60510000D01*
G75*
G02*
X138975000Y-60260000I0J250000D01*
G01*
X138975000Y-59760000D01*
G75*
G02*
X139225000Y-59510000I250000J0D01*
G01*
X140175000Y-59510000D01*
G75*
G02*
X140425000Y-59760000I0J-250000D01*
G01*
X140425000Y-60260000D01*
G75*
G02*
X140175000Y-60510000I-250000J0D01*
G01*
G37*
%TD.AperFunction*%
%TO.P,C4,1*%
%TO.N,+3V3*%
%TA.AperFunction,SMDPad,CuDef*%
G36*
G01*
X140175000Y-62410000D02*
X139225000Y-62410000D01*
G75*
G02*
X138975000Y-62160000I0J250000D01*
G01*
X138975000Y-61660000D01*
G75*
G02*
X139225000Y-61410000I250000J0D01*
G01*
X140175000Y-61410000D01*
G75*
G02*
X140425000Y-61660000I0J-250000D01*
G01*
X140425000Y-62160000D01*
G75*
G02*
X140175000Y-62410000I-250000J0D01*
G01*
G37*
%TD.AperFunction*%
%TD*%
%TO.P,C3,2*%
%TO.N,GND*%
%TA.AperFunction,SMDPad,CuDef*%
G36*
G01*
X143640000Y-55085000D02*
X143640000Y-54135000D01*
G75*
G02*
X143890000Y-53885000I250000J0D01*
G01*
X144390000Y-53885000D01*
G75*
G02*
X144640000Y-54135000I0J-250000D01*
G01*
X144640000Y-55085000D01*
G75*
G02*
X144390000Y-55335000I-250000J0D01*
G01*
X143890000Y-55335000D01*
G75*
G02*
X143640000Y-55085000I0J250000D01*
G01*
G37*
%TD.AperFunction*%
%TO.P,C3,1*%
%TO.N,+3V3*%
%TA.AperFunction,SMDPad,CuDef*%
G36*
G01*
X141740000Y-55085000D02*
X141740000Y-54135000D01*
G75*
G02*
X141990000Y-53885000I250000J0D01*
G01*
X142490000Y-53885000D01*
G75*
G02*
X142740000Y-54135000I0J-250000D01*
G01*
X142740000Y-55085000D01*
G75*
G02*
X142490000Y-55335000I-250000J0D01*
G01*
X141990000Y-55335000D01*
G75*
G02*
X141740000Y-55085000I0J250000D01*
G01*
G37*
%TD.AperFunction*%
%TD*%
%TO.P,C2,2*%
%TO.N,GND*%
%TA.AperFunction,SMDPad,CuDef*%
G36*
G01*
X154120000Y-55085000D02*
X154120000Y-54135000D01*
G75*
G02*
X154370000Y-53885000I250000J0D01*
G01*
X154870000Y-53885000D01*
G75*
G02*
X155120000Y-54135000I0J-250000D01*
G01*
X155120000Y-55085000D01*
G75*
G02*
X154870000Y-55335000I-250000J0D01*
G01*
X154370000Y-55335000D01*
G75*
G02*
X154120000Y-55085000I0J250000D01*
G01*
G37*
%TD.AperFunction*%
%TO.P,C2,1*%
%TO.N,+3V3*%
%TA.AperFunction,SMDPad,CuDef*%
G36*
G01*
X152220000Y-55085000D02*
X152220000Y-54135000D01*
G75*
G02*
X152470000Y-53885000I250000J0D01*
G01*
X152970000Y-53885000D01*
G75*
G02*
X153220000Y-54135000I0J-250000D01*
G01*
X153220000Y-55085000D01*
G75*
G02*
X152970000Y-55335000I-250000J0D01*
G01*
X152470000Y-55335000D01*
G75*
G02*
X152220000Y-55085000I0J250000D01*
G01*
G37*
%TD.AperFunction*%
%TD*%
%TO.P,C1,2*%
%TO.N,-9V*%
%TA.AperFunction,SMDPad,CuDef*%
G36*
G01*
X137980000Y-69375000D02*
X137980000Y-70325000D01*
G75*
G02*
X137730000Y-70575000I-250000J0D01*
G01*
X137230000Y-70575000D01*
G75*
G02*
X136980000Y-70325000I0J250000D01*
G01*
X136980000Y-69375000D01*
G75*
G02*
X137230000Y-69125000I250000J0D01*
G01*
X137730000Y-69125000D01*
G75*
G02*
X137980000Y-69375000I0J-250000D01*
G01*
G37*
%TD.AperFunction*%
%TO.P,C1,1*%
%TO.N,Net-(C1-Pad1)*%
%TA.AperFunction,SMDPad,CuDef*%
G36*
G01*
X139880000Y-69375000D02*
X139880000Y-70325000D01*
G75*
G02*
X139630000Y-70575000I-250000J0D01*
G01*
X139130000Y-70575000D01*
G75*
G02*
X138880000Y-70325000I0J250000D01*
G01*
X138880000Y-69375000D01*
G75*
G02*
X139130000Y-69125000I250000J0D01*
G01*
X139630000Y-69125000D01*
G75*
G02*
X139880000Y-69375000I0J-250000D01*
G01*
G37*
%TD.AperFunction*%
%TD*%
%TO.P,U4,48*%
%TO.N,+3V3*%
%TA.AperFunction,SMDPad,CuDef*%
G36*
G01*
X145690000Y-56190000D02*
X145690000Y-54865000D01*
G75*
G02*
X145765000Y-54790000I75000J0D01*
G01*
X145915000Y-54790000D01*
G75*
G02*
X145990000Y-54865000I0J-75000D01*
G01*
X145990000Y-56190000D01*
G75*
G02*
X145915000Y-56265000I-75000J0D01*
G01*
X145765000Y-56265000D01*
G75*
G02*
X145690000Y-56190000I0J75000D01*
G01*
G37*
%TD.AperFunction*%
%TO.P,U4,47*%
%TO.N,GND*%
%TA.AperFunction,SMDPad,CuDef*%
G36*
G01*
X146190000Y-56190000D02*
X146190000Y-54865000D01*
G75*
G02*
X146265000Y-54790000I75000J0D01*
G01*
X146415000Y-54790000D01*
G75*
G02*
X146490000Y-54865000I0J-75000D01*
G01*
X146490000Y-56190000D01*
G75*
G02*
X146415000Y-56265000I-75000J0D01*
G01*
X146265000Y-56265000D01*
G75*
G02*
X146190000Y-56190000I0J75000D01*
G01*
G37*
%TD.AperFunction*%
%TO.P,U4,46*%
%TO.N,GPIOB9*%
%TA.AperFunction,SMDPad,CuDef*%
G36*
G01*
X146690000Y-56190000D02*
X146690000Y-54865000D01*
G75*
G02*
X146765000Y-54790000I75000J0D01*
G01*
X146915000Y-54790000D01*
G75*
G02*
X146990000Y-54865000I0J-75000D01*
G01*
X146990000Y-56190000D01*
G75*
G02*
X146915000Y-56265000I-75000J0D01*
G01*
X146765000Y-56265000D01*
G75*
G02*
X146690000Y-56190000I0J75000D01*
G01*
G37*
%TD.AperFunction*%
%TO.P,U4,45*%
%TO.N,Net-(U4-Pad45)*%
%TA.AperFunction,SMDPad,CuDef*%
G36*
G01*
X147190000Y-56190000D02*
X147190000Y-54865000D01*
G75*
G02*
X147265000Y-54790000I75000J0D01*
G01*
X147415000Y-54790000D01*
G75*
G02*
X147490000Y-54865000I0J-75000D01*
G01*
X147490000Y-56190000D01*
G75*
G02*
X147415000Y-56265000I-75000J0D01*
G01*
X147265000Y-56265000D01*
G75*
G02*
X147190000Y-56190000I0J75000D01*
G01*
G37*
%TD.AperFunction*%
%TO.P,U4,44*%
%TO.N,Net-(U4-Pad44)*%
%TA.AperFunction,SMDPad,CuDef*%
G36*
G01*
X147690000Y-56190000D02*
X147690000Y-54865000D01*
G75*
G02*
X147765000Y-54790000I75000J0D01*
G01*
X147915000Y-54790000D01*
G75*
G02*
X147990000Y-54865000I0J-75000D01*
G01*
X147990000Y-56190000D01*
G75*
G02*
X147915000Y-56265000I-75000J0D01*
G01*
X147765000Y-56265000D01*
G75*
G02*
X147690000Y-56190000I0J75000D01*
G01*
G37*
%TD.AperFunction*%
%TO.P,U4,43*%
%TO.N,I2C_SDA1*%
%TA.AperFunction,SMDPad,CuDef*%
G36*
G01*
X148190000Y-56190000D02*
X148190000Y-54865000D01*
G75*
G02*
X148265000Y-54790000I75000J0D01*
G01*
X148415000Y-54790000D01*
G75*
G02*
X148490000Y-54865000I0J-75000D01*
G01*
X148490000Y-56190000D01*
G75*
G02*
X148415000Y-56265000I-75000J0D01*
G01*
X148265000Y-56265000D01*
G75*
G02*
X148190000Y-56190000I0J75000D01*
G01*
G37*
%TD.AperFunction*%
%TO.P,U4,42*%
%TO.N,I2C_SCL1*%
%TA.AperFunction,SMDPad,CuDef*%
G36*
G01*
X148690000Y-56190000D02*
X148690000Y-54865000D01*
G75*
G02*
X148765000Y-54790000I75000J0D01*
G01*
X148915000Y-54790000D01*
G75*
G02*
X148990000Y-54865000I0J-75000D01*
G01*
X148990000Y-56190000D01*
G75*
G02*
X148915000Y-56265000I-75000J0D01*
G01*
X148765000Y-56265000D01*
G75*
G02*
X148690000Y-56190000I0J75000D01*
G01*
G37*
%TD.AperFunction*%
%TO.P,U4,41*%
%TO.N,SPI_MOSI1*%
%TA.AperFunction,SMDPad,CuDef*%
G36*
G01*
X149190000Y-56190000D02*
X149190000Y-54865000D01*
G75*
G02*
X149265000Y-54790000I75000J0D01*
G01*
X149415000Y-54790000D01*
G75*
G02*
X149490000Y-54865000I0J-75000D01*
G01*
X149490000Y-56190000D01*
G75*
G02*
X149415000Y-56265000I-75000J0D01*
G01*
X149265000Y-56265000D01*
G75*
G02*
X149190000Y-56190000I0J75000D01*
G01*
G37*
%TD.AperFunction*%
%TO.P,U4,40*%
%TO.N,SPI_MISO1*%
%TA.AperFunction,SMDPad,CuDef*%
G36*
G01*
X149690000Y-56190000D02*
X149690000Y-54865000D01*
G75*
G02*
X149765000Y-54790000I75000J0D01*
G01*
X149915000Y-54790000D01*
G75*
G02*
X149990000Y-54865000I0J-75000D01*
G01*
X149990000Y-56190000D01*
G75*
G02*
X149915000Y-56265000I-75000J0D01*
G01*
X149765000Y-56265000D01*
G75*
G02*
X149690000Y-56190000I0J75000D01*
G01*
G37*
%TD.AperFunction*%
%TO.P,U4,39*%
%TO.N,SPI_SCK1*%
%TA.AperFunction,SMDPad,CuDef*%
G36*
G01*
X150190000Y-56190000D02*
X150190000Y-54865000D01*
G75*
G02*
X150265000Y-54790000I75000J0D01*
G01*
X150415000Y-54790000D01*
G75*
G02*
X150490000Y-54865000I0J-75000D01*
G01*
X150490000Y-56190000D01*
G75*
G02*
X150415000Y-56265000I-75000J0D01*
G01*
X150265000Y-56265000D01*
G75*
G02*
X150190000Y-56190000I0J75000D01*
G01*
G37*
%TD.AperFunction*%
%TO.P,U4,38*%
%TO.N,SPI_NSS1*%
%TA.AperFunction,SMDPad,CuDef*%
G36*
G01*
X150690000Y-56190000D02*
X150690000Y-54865000D01*
G75*
G02*
X150765000Y-54790000I75000J0D01*
G01*
X150915000Y-54790000D01*
G75*
G02*
X150990000Y-54865000I0J-75000D01*
G01*
X150990000Y-56190000D01*
G75*
G02*
X150915000Y-56265000I-75000J0D01*
G01*
X150765000Y-56265000D01*
G75*
G02*
X150690000Y-56190000I0J75000D01*
G01*
G37*
%TD.AperFunction*%
%TO.P,U4,37*%
%TO.N,SWCLK*%
%TA.AperFunction,SMDPad,CuDef*%
G36*
G01*
X151190000Y-56190000D02*
X151190000Y-54865000D01*
G75*
G02*
X151265000Y-54790000I75000J0D01*
G01*
X151415000Y-54790000D01*
G75*
G02*
X151490000Y-54865000I0J-75000D01*
G01*
X151490000Y-56190000D01*
G75*
G02*
X151415000Y-56265000I-75000J0D01*
G01*
X151265000Y-56265000D01*
G75*
G02*
X151190000Y-56190000I0J75000D01*
G01*
G37*
%TD.AperFunction*%
%TO.P,U4,36*%
%TO.N,+3V3*%
%TA.AperFunction,SMDPad,CuDef*%
G36*
G01*
X152015000Y-57015000D02*
X152015000Y-56865000D01*
G75*
G02*
X152090000Y-56790000I75000J0D01*
G01*
X153415000Y-56790000D01*
G75*
G02*
X153490000Y-56865000I0J-75000D01*
G01*
X153490000Y-57015000D01*
G75*
G02*
X153415000Y-57090000I-75000J0D01*
G01*
X152090000Y-57090000D01*
G75*
G02*
X152015000Y-57015000I0J75000D01*
G01*
G37*
%TD.AperFunction*%
%TO.P,U4,35*%
%TO.N,GND*%
%TA.AperFunction,SMDPad,CuDef*%
G36*
G01*
X152015000Y-57515000D02*
X152015000Y-57365000D01*
G75*
G02*
X152090000Y-57290000I75000J0D01*
G01*
X153415000Y-57290000D01*
G75*
G02*
X153490000Y-57365000I0J-75000D01*
G01*
X153490000Y-57515000D01*
G75*
G02*
X153415000Y-57590000I-75000J0D01*
G01*
X152090000Y-57590000D01*
G75*
G02*
X152015000Y-57515000I0J75000D01*
G01*
G37*
%TD.AperFunction*%
%TO.P,U4,34*%
%TO.N,SWDIO*%
%TA.AperFunction,SMDPad,CuDef*%
G36*
G01*
X152015000Y-58015000D02*
X152015000Y-57865000D01*
G75*
G02*
X152090000Y-57790000I75000J0D01*
G01*
X153415000Y-57790000D01*
G75*
G02*
X153490000Y-57865000I0J-75000D01*
G01*
X153490000Y-58015000D01*
G75*
G02*
X153415000Y-58090000I-75000J0D01*
G01*
X152090000Y-58090000D01*
G75*
G02*
X152015000Y-58015000I0J75000D01*
G01*
G37*
%TD.AperFunction*%
%TO.P,U4,33*%
%TO.N,PA12*%
%TA.AperFunction,SMDPad,CuDef*%
G36*
G01*
X152015000Y-58515000D02*
X152015000Y-58365000D01*
G75*
G02*
X152090000Y-58290000I75000J0D01*
G01*
X153415000Y-58290000D01*
G75*
G02*
X153490000Y-58365000I0J-75000D01*
G01*
X153490000Y-58515000D01*
G75*
G02*
X153415000Y-58590000I-75000J0D01*
G01*
X152090000Y-58590000D01*
G75*
G02*
X152015000Y-58515000I0J75000D01*
G01*
G37*
%TD.AperFunction*%
%TO.P,U4,32*%
%TO.N,PA11*%
%TA.AperFunction,SMDPad,CuDef*%
G36*
G01*
X152015000Y-59015000D02*
X152015000Y-58865000D01*
G75*
G02*
X152090000Y-58790000I75000J0D01*
G01*
X153415000Y-58790000D01*
G75*
G02*
X153490000Y-58865000I0J-75000D01*
G01*
X153490000Y-59015000D01*
G75*
G02*
X153415000Y-59090000I-75000J0D01*
G01*
X152090000Y-59090000D01*
G75*
G02*
X152015000Y-59015000I0J75000D01*
G01*
G37*
%TD.AperFunction*%
%TO.P,U4,31*%
%TO.N,RX1*%
%TA.AperFunction,SMDPad,CuDef*%
G36*
G01*
X152015000Y-59515000D02*
X152015000Y-59365000D01*
G75*
G02*
X152090000Y-59290000I75000J0D01*
G01*
X153415000Y-59290000D01*
G75*
G02*
X153490000Y-59365000I0J-75000D01*
G01*
X153490000Y-59515000D01*
G75*
G02*
X153415000Y-59590000I-75000J0D01*
G01*
X152090000Y-59590000D01*
G75*
G02*
X152015000Y-59515000I0J75000D01*
G01*
G37*
%TD.AperFunction*%
%TO.P,U4,30*%
%TO.N,Net-(U4-Pad30)*%
%TA.AperFunction,SMDPad,CuDef*%
G36*
G01*
X152015000Y-60015000D02*
X152015000Y-59865000D01*
G75*
G02*
X152090000Y-59790000I75000J0D01*
G01*
X153415000Y-59790000D01*
G75*
G02*
X153490000Y-59865000I0J-75000D01*
G01*
X153490000Y-60015000D01*
G75*
G02*
X153415000Y-60090000I-75000J0D01*
G01*
X152090000Y-60090000D01*
G75*
G02*
X152015000Y-60015000I0J75000D01*
G01*
G37*
%TD.AperFunction*%
%TO.P,U4,29*%
%TO.N,Net-(U4-Pad29)*%
%TA.AperFunction,SMDPad,CuDef*%
G36*
G01*
X152015000Y-60515000D02*
X152015000Y-60365000D01*
G75*
G02*
X152090000Y-60290000I75000J0D01*
G01*
X153415000Y-60290000D01*
G75*
G02*
X153490000Y-60365000I0J-75000D01*
G01*
X153490000Y-60515000D01*
G75*
G02*
X153415000Y-60590000I-75000J0D01*
G01*
X152090000Y-60590000D01*
G75*
G02*
X152015000Y-60515000I0J75000D01*
G01*
G37*
%TD.AperFunction*%
%TO.P,U4,28*%
%TO.N,SPI_MOSI2*%
%TA.AperFunction,SMDPad,CuDef*%
G36*
G01*
X152015000Y-61015000D02*
X152015000Y-60865000D01*
G75*
G02*
X152090000Y-60790000I75000J0D01*
G01*
X153415000Y-60790000D01*
G75*
G02*
X153490000Y-60865000I0J-75000D01*
G01*
X153490000Y-61015000D01*
G75*
G02*
X153415000Y-61090000I-75000J0D01*
G01*
X152090000Y-61090000D01*
G75*
G02*
X152015000Y-61015000I0J75000D01*
G01*
G37*
%TD.AperFunction*%
%TO.P,U4,27*%
%TO.N,Net-(U4-Pad27)*%
%TA.AperFunction,SMDPad,CuDef*%
G36*
G01*
X152015000Y-61515000D02*
X152015000Y-61365000D01*
G75*
G02*
X152090000Y-61290000I75000J0D01*
G01*
X153415000Y-61290000D01*
G75*
G02*
X153490000Y-61365000I0J-75000D01*
G01*
X153490000Y-61515000D01*
G75*
G02*
X153415000Y-61590000I-75000J0D01*
G01*
X152090000Y-61590000D01*
G75*
G02*
X152015000Y-61515000I0J75000D01*
G01*
G37*
%TD.AperFunction*%
%TO.P,U4,26*%
%TO.N,SPI_SCK2*%
%TA.AperFunction,SMDPad,CuDef*%
G36*
G01*
X152015000Y-62015000D02*
X152015000Y-61865000D01*
G75*
G02*
X152090000Y-61790000I75000J0D01*
G01*
X153415000Y-61790000D01*
G75*
G02*
X153490000Y-61865000I0J-75000D01*
G01*
X153490000Y-62015000D01*
G75*
G02*
X153415000Y-62090000I-75000J0D01*
G01*
X152090000Y-62090000D01*
G75*
G02*
X152015000Y-62015000I0J75000D01*
G01*
G37*
%TD.AperFunction*%
%TO.P,U4,25*%
%TO.N,SPI_NSS2*%
%TA.AperFunction,SMDPad,CuDef*%
G36*
G01*
X152015000Y-62515000D02*
X152015000Y-62365000D01*
G75*
G02*
X152090000Y-62290000I75000J0D01*
G01*
X153415000Y-62290000D01*
G75*
G02*
X153490000Y-62365000I0J-75000D01*
G01*
X153490000Y-62515000D01*
G75*
G02*
X153415000Y-62590000I-75000J0D01*
G01*
X152090000Y-62590000D01*
G75*
G02*
X152015000Y-62515000I0J75000D01*
G01*
G37*
%TD.AperFunction*%
%TO.P,U4,24*%
%TO.N,+3V3*%
%TA.AperFunction,SMDPad,CuDef*%
G36*
G01*
X151190000Y-64515000D02*
X151190000Y-63190000D01*
G75*
G02*
X151265000Y-63115000I75000J0D01*
G01*
X151415000Y-63115000D01*
G75*
G02*
X151490000Y-63190000I0J-75000D01*
G01*
X151490000Y-64515000D01*
G75*
G02*
X151415000Y-64590000I-75000J0D01*
G01*
X151265000Y-64590000D01*
G75*
G02*
X151190000Y-64515000I0J75000D01*
G01*
G37*
%TD.AperFunction*%
%TO.P,U4,23*%
%TO.N,GND*%
%TA.AperFunction,SMDPad,CuDef*%
G36*
G01*
X150690000Y-64515000D02*
X150690000Y-63190000D01*
G75*
G02*
X150765000Y-63115000I75000J0D01*
G01*
X150915000Y-63115000D01*
G75*
G02*
X150990000Y-63190000I0J-75000D01*
G01*
X150990000Y-64515000D01*
G75*
G02*
X150915000Y-64590000I-75000J0D01*
G01*
X150765000Y-64590000D01*
G75*
G02*
X150690000Y-64515000I0J75000D01*
G01*
G37*
%TD.AperFunction*%
%TO.P,U4,22*%
%TO.N,GPIOB11*%
%TA.AperFunction,SMDPad,CuDef*%
G36*
G01*
X150190000Y-64515000D02*
X150190000Y-63190000D01*
G75*
G02*
X150265000Y-63115000I75000J0D01*
G01*
X150415000Y-63115000D01*
G75*
G02*
X150490000Y-63190000I0J-75000D01*
G01*
X150490000Y-64515000D01*
G75*
G02*
X150415000Y-64590000I-75000J0D01*
G01*
X150265000Y-64590000D01*
G75*
G02*
X150190000Y-64515000I0J75000D01*
G01*
G37*
%TD.AperFunction*%
%TO.P,U4,21*%
%TO.N,GPIOB10*%
%TA.AperFunction,SMDPad,CuDef*%
G36*
G01*
X149690000Y-64515000D02*
X149690000Y-63190000D01*
G75*
G02*
X149765000Y-63115000I75000J0D01*
G01*
X149915000Y-63115000D01*
G75*
G02*
X149990000Y-63190000I0J-75000D01*
G01*
X149990000Y-64515000D01*
G75*
G02*
X149915000Y-64590000I-75000J0D01*
G01*
X149765000Y-64590000D01*
G75*
G02*
X149690000Y-64515000I0J75000D01*
G01*
G37*
%TD.AperFunction*%
%TO.P,U4,20*%
%TO.N,Net-(U4-Pad20)*%
%TA.AperFunction,SMDPad,CuDef*%
G36*
G01*
X149190000Y-64515000D02*
X149190000Y-63190000D01*
G75*
G02*
X149265000Y-63115000I75000J0D01*
G01*
X149415000Y-63115000D01*
G75*
G02*
X149490000Y-63190000I0J-75000D01*
G01*
X149490000Y-64515000D01*
G75*
G02*
X149415000Y-64590000I-75000J0D01*
G01*
X149265000Y-64590000D01*
G75*
G02*
X149190000Y-64515000I0J75000D01*
G01*
G37*
%TD.AperFunction*%
%TO.P,U4,19*%
%TO.N,LCD_DC*%
%TA.AperFunction,SMDPad,CuDef*%
G36*
G01*
X148690000Y-64515000D02*
X148690000Y-63190000D01*
G75*
G02*
X148765000Y-63115000I75000J0D01*
G01*
X148915000Y-63115000D01*
G75*
G02*
X148990000Y-63190000I0J-75000D01*
G01*
X148990000Y-64515000D01*
G75*
G02*
X148915000Y-64590000I-75000J0D01*
G01*
X148765000Y-64590000D01*
G75*
G02*
X148690000Y-64515000I0J75000D01*
G01*
G37*
%TD.AperFunction*%
%TO.P,U4,18*%
%TO.N,LCD_RST*%
%TA.AperFunction,SMDPad,CuDef*%
G36*
G01*
X148190000Y-64515000D02*
X148190000Y-63190000D01*
G75*
G02*
X148265000Y-63115000I75000J0D01*
G01*
X148415000Y-63115000D01*
G75*
G02*
X148490000Y-63190000I0J-75000D01*
G01*
X148490000Y-64515000D01*
G75*
G02*
X148415000Y-64590000I-75000J0D01*
G01*
X148265000Y-64590000D01*
G75*
G02*
X148190000Y-64515000I0J75000D01*
G01*
G37*
%TD.AperFunction*%
%TO.P,U4,17*%
%TO.N,GPIOA7*%
%TA.AperFunction,SMDPad,CuDef*%
G36*
G01*
X147690000Y-64515000D02*
X147690000Y-63190000D01*
G75*
G02*
X147765000Y-63115000I75000J0D01*
G01*
X147915000Y-63115000D01*
G75*
G02*
X147990000Y-63190000I0J-75000D01*
G01*
X147990000Y-64515000D01*
G75*
G02*
X147915000Y-64590000I-75000J0D01*
G01*
X147765000Y-64590000D01*
G75*
G02*
X147690000Y-64515000I0J75000D01*
G01*
G37*
%TD.AperFunction*%
%TO.P,U4,16*%
%TO.N,GPIOA6*%
%TA.AperFunction,SMDPad,CuDef*%
G36*
G01*
X147190000Y-64515000D02*
X147190000Y-63190000D01*
G75*
G02*
X147265000Y-63115000I75000J0D01*
G01*
X147415000Y-63115000D01*
G75*
G02*
X147490000Y-63190000I0J-75000D01*
G01*
X147490000Y-64515000D01*
G75*
G02*
X147415000Y-64590000I-75000J0D01*
G01*
X147265000Y-64590000D01*
G75*
G02*
X147190000Y-64515000I0J75000D01*
G01*
G37*
%TD.AperFunction*%
%TO.P,U4,15*%
%TO.N,GPIOA5*%
%TA.AperFunction,SMDPad,CuDef*%
G36*
G01*
X146690000Y-64515000D02*
X146690000Y-63190000D01*
G75*
G02*
X146765000Y-63115000I75000J0D01*
G01*
X146915000Y-63115000D01*
G75*
G02*
X146990000Y-63190000I0J-75000D01*
G01*
X146990000Y-64515000D01*
G75*
G02*
X146915000Y-64590000I-75000J0D01*
G01*
X146765000Y-64590000D01*
G75*
G02*
X146690000Y-64515000I0J75000D01*
G01*
G37*
%TD.AperFunction*%
%TO.P,U4,14*%
%TO.N,GPIOA4*%
%TA.AperFunction,SMDPad,CuDef*%
G36*
G01*
X146190000Y-64515000D02*
X146190000Y-63190000D01*
G75*
G02*
X146265000Y-63115000I75000J0D01*
G01*
X146415000Y-63115000D01*
G75*
G02*
X146490000Y-63190000I0J-75000D01*
G01*
X146490000Y-64515000D01*
G75*
G02*
X146415000Y-64590000I-75000J0D01*
G01*
X146265000Y-64590000D01*
G75*
G02*
X146190000Y-64515000I0J75000D01*
G01*
G37*
%TD.AperFunction*%
%TO.P,U4,13*%
%TO.N,GPIOA3*%
%TA.AperFunction,SMDPad,CuDef*%
G36*
G01*
X145690000Y-64515000D02*
X145690000Y-63190000D01*
G75*
G02*
X145765000Y-63115000I75000J0D01*
G01*
X145915000Y-63115000D01*
G75*
G02*
X145990000Y-63190000I0J-75000D01*
G01*
X145990000Y-64515000D01*
G75*
G02*
X145915000Y-64590000I-75000J0D01*
G01*
X145765000Y-64590000D01*
G75*
G02*
X145690000Y-64515000I0J75000D01*
G01*
G37*
%TD.AperFunction*%
%TO.P,U4,12*%
%TO.N,GPIOA2*%
%TA.AperFunction,SMDPad,CuDef*%
G36*
G01*
X143690000Y-62515000D02*
X143690000Y-62365000D01*
G75*
G02*
X143765000Y-62290000I75000J0D01*
G01*
X145090000Y-62290000D01*
G75*
G02*
X145165000Y-62365000I0J-75000D01*
G01*
X145165000Y-62515000D01*
G75*
G02*
X145090000Y-62590000I-75000J0D01*
G01*
X143765000Y-62590000D01*
G75*
G02*
X143690000Y-62515000I0J75000D01*
G01*
G37*
%TD.AperFunction*%
%TO.P,U4,11*%
%TO.N,GPIOA1*%
%TA.AperFunction,SMDPad,CuDef*%
G36*
G01*
X143690000Y-62015000D02*
X143690000Y-61865000D01*
G75*
G02*
X143765000Y-61790000I75000J0D01*
G01*
X145090000Y-61790000D01*
G75*
G02*
X145165000Y-61865000I0J-75000D01*
G01*
X145165000Y-62015000D01*
G75*
G02*
X145090000Y-62090000I-75000J0D01*
G01*
X143765000Y-62090000D01*
G75*
G02*
X143690000Y-62015000I0J75000D01*
G01*
G37*
%TD.AperFunction*%
%TO.P,U4,10*%
%TO.N,GPIOA0*%
%TA.AperFunction,SMDPad,CuDef*%
G36*
G01*
X143690000Y-61515000D02*
X143690000Y-61365000D01*
G75*
G02*
X143765000Y-61290000I75000J0D01*
G01*
X145090000Y-61290000D01*
G75*
G02*
X145165000Y-61365000I0J-75000D01*
G01*
X145165000Y-61515000D01*
G75*
G02*
X145090000Y-61590000I-75000J0D01*
G01*
X143765000Y-61590000D01*
G75*
G02*
X143690000Y-61515000I0J75000D01*
G01*
G37*
%TD.AperFunction*%
%TO.P,U4,9*%
%TO.N,+3V3*%
%TA.AperFunction,SMDPad,CuDef*%
G36*
G01*
X143690000Y-61015000D02*
X143690000Y-60865000D01*
G75*
G02*
X143765000Y-60790000I75000J0D01*
G01*
X145090000Y-60790000D01*
G75*
G02*
X145165000Y-60865000I0J-75000D01*
G01*
X145165000Y-61015000D01*
G75*
G02*
X145090000Y-61090000I-75000J0D01*
G01*
X143765000Y-61090000D01*
G75*
G02*
X143690000Y-61015000I0J75000D01*
G01*
G37*
%TD.AperFunction*%
%TO.P,U4,8*%
%TO.N,GND*%
%TA.AperFunction,SMDPad,CuDef*%
G36*
G01*
X143690000Y-60515000D02*
X143690000Y-60365000D01*
G75*
G02*
X143765000Y-60290000I75000J0D01*
G01*
X145090000Y-60290000D01*
G75*
G02*
X145165000Y-60365000I0J-75000D01*
G01*
X145165000Y-60515000D01*
G75*
G02*
X145090000Y-60590000I-75000J0D01*
G01*
X143765000Y-60590000D01*
G75*
G02*
X143690000Y-60515000I0J75000D01*
G01*
G37*
%TD.AperFunction*%
%TO.P,U4,7*%
%TO.N,Net-(C9-Pad1)*%
%TA.AperFunction,SMDPad,CuDef*%
G36*
G01*
X143690000Y-60015000D02*
X143690000Y-59865000D01*
G75*
G02*
X143765000Y-59790000I75000J0D01*
G01*
X145090000Y-59790000D01*
G75*
G02*
X145165000Y-59865000I0J-75000D01*
G01*
X145165000Y-60015000D01*
G75*
G02*
X145090000Y-60090000I-75000J0D01*
G01*
X143765000Y-60090000D01*
G75*
G02*
X143690000Y-60015000I0J75000D01*
G01*
G37*
%TD.AperFunction*%
%TO.P,U4,6*%
%TO.N,Net-(C6-Pad1)*%
%TA.AperFunction,SMDPad,CuDef*%
G36*
G01*
X143690000Y-59515000D02*
X143690000Y-59365000D01*
G75*
G02*
X143765000Y-59290000I75000J0D01*
G01*
X145090000Y-59290000D01*
G75*
G02*
X145165000Y-59365000I0J-75000D01*
G01*
X145165000Y-59515000D01*
G75*
G02*
X145090000Y-59590000I-75000J0D01*
G01*
X143765000Y-59590000D01*
G75*
G02*
X143690000Y-59515000I0J75000D01*
G01*
G37*
%TD.AperFunction*%
%TO.P,U4,5*%
%TO.N,Net-(C8-Pad1)*%
%TA.AperFunction,SMDPad,CuDef*%
G36*
G01*
X143690000Y-59015000D02*
X143690000Y-58865000D01*
G75*
G02*
X143765000Y-58790000I75000J0D01*
G01*
X145090000Y-58790000D01*
G75*
G02*
X145165000Y-58865000I0J-75000D01*
G01*
X145165000Y-59015000D01*
G75*
G02*
X145090000Y-59090000I-75000J0D01*
G01*
X143765000Y-59090000D01*
G75*
G02*
X143690000Y-59015000I0J75000D01*
G01*
G37*
%TD.AperFunction*%
%TO.P,U4,4*%
%TO.N,Net-(U4-Pad4)*%
%TA.AperFunction,SMDPad,CuDef*%
G36*
G01*
X143690000Y-58515000D02*
X143690000Y-58365000D01*
G75*
G02*
X143765000Y-58290000I75000J0D01*
G01*
X145090000Y-58290000D01*
G75*
G02*
X145165000Y-58365000I0J-75000D01*
G01*
X145165000Y-58515000D01*
G75*
G02*
X145090000Y-58590000I-75000J0D01*
G01*
X143765000Y-58590000D01*
G75*
G02*
X143690000Y-58515000I0J75000D01*
G01*
G37*
%TD.AperFunction*%
%TO.P,U4,3*%
%TO.N,Net-(U4-Pad3)*%
%TA.AperFunction,SMDPad,CuDef*%
G36*
G01*
X143690000Y-58015000D02*
X143690000Y-57865000D01*
G75*
G02*
X143765000Y-57790000I75000J0D01*
G01*
X145090000Y-57790000D01*
G75*
G02*
X145165000Y-57865000I0J-75000D01*
G01*
X145165000Y-58015000D01*
G75*
G02*
X145090000Y-58090000I-75000J0D01*
G01*
X143765000Y-58090000D01*
G75*
G02*
X143690000Y-58015000I0J75000D01*
G01*
G37*
%TD.AperFunction*%
%TO.P,U4,2*%
%TO.N,Net-(U4-Pad2)*%
%TA.AperFunction,SMDPad,CuDef*%
G36*
G01*
X143690000Y-57515000D02*
X143690000Y-57365000D01*
G75*
G02*
X143765000Y-57290000I75000J0D01*
G01*
X145090000Y-57290000D01*
G75*
G02*
X145165000Y-57365000I0J-75000D01*
G01*
X145165000Y-57515000D01*
G75*
G02*
X145090000Y-57590000I-75000J0D01*
G01*
X143765000Y-57590000D01*
G75*
G02*
X143690000Y-57515000I0J75000D01*
G01*
G37*
%TD.AperFunction*%
%TO.P,U4,1*%
%TO.N,+3V3*%
%TA.AperFunction,SMDPad,CuDef*%
G36*
G01*
X143690000Y-57015000D02*
X143690000Y-56865000D01*
G75*
G02*
X143765000Y-56790000I75000J0D01*
G01*
X145090000Y-56790000D01*
G75*
G02*
X145165000Y-56865000I0J-75000D01*
G01*
X145165000Y-57015000D01*
G75*
G02*
X145090000Y-57090000I-75000J0D01*
G01*
X143765000Y-57090000D01*
G75*
G02*
X143690000Y-57015000I0J75000D01*
G01*
G37*
%TD.AperFunction*%
%TD*%
D13*
%TO.P,U2,6*%
%TO.N,+3V3*%
X157480000Y-66040000D03*
%TO.P,U2,3*%
%TO.N,Net-(U2-Pad3)*%
X162560000Y-73660000D03*
%TO.P,U2,5*%
%TO.N,RX1*%
X160020000Y-66040000D03*
%TO.P,U2,2*%
%TO.N,MIDI5*%
X160020000Y-73660000D03*
%TO.P,U2,4*%
%TO.N,GND*%
X162560000Y-66040000D03*
D14*
%TO.P,U2,1*%
%TO.N,MIDI4*%
X157480000Y-73660000D03*
%TD*%
D22*
%TO.N,GPIOA7*%
X147320000Y-67310000D03*
%TO.N,GPIOA6*%
X146050000Y-67310000D03*
%TO.N,GPIOA5*%
X144780000Y-67310000D03*
%TO.N,GPIOA4*%
X143510000Y-67310000D03*
%TO.N,GPIOA3*%
X142240000Y-67310000D03*
%TO.N,GPIOA2*%
X142240000Y-66040000D03*
%TO.N,GPIOA1*%
X142240000Y-64770000D03*
%TO.N,GPIOA0*%
X142240000Y-62230000D03*
%TO.N,IO*%
X135955000Y-74865000D03*
%TO.N,-9V*%
X138430000Y-72390000D03*
%TO.N,GND*%
X171345000Y-53445000D03*
X165100000Y-66040000D03*
X154940000Y-53340000D03*
X139700000Y-72390000D03*
X162590001Y-53309999D03*
%TO.N,Net-(C1-Pad1)*%
X142240000Y-72390000D03*
%TO.N,Net-(R6-Pad1)*%
X143510000Y-72390000D03*
%TO.N,Net-(R3-Pad2)*%
X146050000Y-72390000D03*
%TO.N,+3V3*%
X147320000Y-59690000D03*
X151130000Y-57150000D03*
X147320000Y-62230000D03*
X151130000Y-59690000D03*
X147320000Y-72390000D03*
X152720000Y-55560000D03*
X157480000Y-53340000D03*
X138430000Y-64770000D03*
X137160000Y-60960000D03*
%TO.N,+5V*%
X167645000Y-58425000D03*
X142240000Y-77470000D03*
%TO.N,RX1*%
X154940000Y-60960000D03*
X159385000Y-62865000D03*
%TO.N,GPIOB9*%
X140970000Y-54610000D03*
%TO.N,I2C_SCL1*%
X149860000Y-57150000D03*
%TO.N,SPI_NSS1*%
X151130000Y-53340000D03*
%TO.N,SPI_MOSI2*%
X154940000Y-62230000D03*
X153670000Y-73660000D03*
%TO.N,SPI_SCK2*%
X151130000Y-73660000D03*
X153670000Y-63500000D03*
%TO.N,SPI_NSS2*%
X149860000Y-73660000D03*
X152400000Y-63500000D03*
%TO.N,Net-(C9-Pad1)*%
X146050000Y-59690000D03*
X130810000Y-60960000D03*
%TD*%
D23*
%TO.N,GPIOA7*%
X147840000Y-63852500D02*
X147840000Y-66790000D01*
X147840000Y-66790000D02*
X147320000Y-67310000D01*
X147320000Y-67310000D02*
X147320000Y-67310000D01*
%TO.N,GPIOA6*%
X147340000Y-63852500D02*
X147340000Y-66020000D01*
X147340000Y-66020000D02*
X146050000Y-67310000D01*
X146050000Y-67310000D02*
X146050000Y-67310000D01*
%TO.N,GPIOA5*%
X146840000Y-63852500D02*
X146840000Y-65250000D01*
X146840000Y-65250000D02*
X144780000Y-67310000D01*
X144780000Y-67310000D02*
X144780000Y-67310000D01*
%TO.N,GPIOA4*%
X146340000Y-64620346D02*
X143650346Y-67310000D01*
X146340000Y-63852500D02*
X146340000Y-64620346D01*
X143650346Y-67310000D02*
X143510000Y-67310000D01*
X143510000Y-67310000D02*
X143510000Y-67310000D01*
%TO.N,GPIOA3*%
X145840000Y-63852500D02*
X142382500Y-67310000D01*
X142382500Y-67310000D02*
X142240000Y-67310000D01*
X142240000Y-67310000D02*
X142240000Y-67310000D01*
%TO.N,GPIOA2*%
X144427500Y-62440000D02*
X144427500Y-63852500D01*
X144427500Y-63852500D02*
X142240000Y-66040000D01*
X142240000Y-66040000D02*
X142240000Y-66040000D01*
%TO.N,GPIOA1*%
X143659654Y-61940000D02*
X142240000Y-63359654D01*
X144427500Y-61940000D02*
X143659654Y-61940000D01*
X142240000Y-63359654D02*
X142240000Y-64770000D01*
X142240000Y-64770000D02*
X142240000Y-64770000D01*
%TO.N,GPIOA0*%
X144427500Y-61440000D02*
X143030000Y-61440000D01*
X143030000Y-61440000D02*
X142240000Y-62230000D01*
X142240000Y-62230000D02*
X142240000Y-62230000D01*
D24*
%TO.N,IO*%
X135890000Y-74930000D02*
X135955000Y-74865000D01*
X134620000Y-74930000D02*
X135890000Y-74930000D01*
%TO.N,-9V*%
X137480000Y-69850000D02*
X137480000Y-71440000D01*
X137480000Y-71440000D02*
X138430000Y-72390000D01*
X138430000Y-72390000D02*
X138430000Y-72390000D01*
D25*
%TO.N,GND*%
X146340000Y-56330702D02*
X147449298Y-57440000D01*
X146340000Y-55527500D02*
X146340000Y-56330702D01*
X145230702Y-60440000D02*
X144427500Y-60440000D01*
X147449298Y-57440000D02*
X148880000Y-57440000D01*
X150969298Y-58420000D02*
X149860000Y-58420000D01*
X151949298Y-57440000D02*
X150969298Y-58420000D01*
X152752500Y-57440000D02*
X151949298Y-57440000D01*
X149860000Y-58420000D02*
X148880000Y-57440000D01*
X150840000Y-61940000D02*
X150840000Y-63852500D01*
X150030000Y-61130000D02*
X150840000Y-61940000D01*
X150030000Y-60440000D02*
X150030000Y-61130000D01*
X149340000Y-58940000D02*
X149860000Y-58420000D01*
X149340000Y-60440000D02*
X149340000Y-58940000D01*
X144427500Y-60440000D02*
X149340000Y-60440000D01*
X149340000Y-60440000D02*
X150030000Y-60440000D01*
X150840000Y-65750000D02*
X151130000Y-66040000D01*
X150840000Y-63852500D02*
X150840000Y-65750000D01*
X143194298Y-60010000D02*
X139700000Y-60010000D01*
X143624298Y-60440000D02*
X143194298Y-60010000D01*
X144427500Y-60440000D02*
X143624298Y-60440000D01*
D24*
X138524990Y-61185010D02*
X138524990Y-62135010D01*
X138524990Y-62135010D02*
X134620000Y-66040000D01*
X162560000Y-66040000D02*
X165100000Y-66040000D01*
X168790000Y-50870000D02*
X171015000Y-50870000D01*
X166090000Y-50870000D02*
X168790000Y-50870000D01*
X164265000Y-50870000D02*
X166090000Y-50870000D01*
X165152500Y-51757500D02*
X164265000Y-50870000D01*
X165152500Y-53445000D02*
X165152500Y-51757500D01*
X170127500Y-51757500D02*
X171015000Y-50870000D01*
X170127500Y-53445000D02*
X170127500Y-51757500D01*
D26*
X166255000Y-53445000D02*
X166340000Y-53530000D01*
X165152500Y-53445000D02*
X166255000Y-53445000D01*
D24*
X170127500Y-53445000D02*
X171345000Y-53445000D01*
X171345000Y-53445000D02*
X171345000Y-53445000D01*
X139700000Y-78740000D02*
X138430000Y-77470000D01*
X139700000Y-81280000D02*
X139700000Y-78740000D01*
X161309999Y-76219999D02*
X162560000Y-77470000D01*
X161309999Y-67290001D02*
X161309999Y-76219999D01*
X162560000Y-66040000D02*
X161309999Y-67290001D01*
D25*
X153555702Y-57440000D02*
X152752500Y-57440000D01*
X154620000Y-56375702D02*
X153555702Y-57440000D01*
X154620000Y-54610000D02*
X154620000Y-56375702D01*
X154940000Y-53340000D02*
X154940000Y-53340000D01*
D24*
X154620000Y-53660000D02*
X154940000Y-53340000D01*
X154620000Y-54610000D02*
X154620000Y-53660000D01*
X169725000Y-65225000D02*
X167640000Y-67310000D01*
X169725000Y-62985000D02*
X169725000Y-65225000D01*
X166370000Y-67310000D02*
X165100000Y-66040000D01*
X167640000Y-67310000D02*
X166370000Y-67310000D01*
X133670000Y-56830000D02*
X133350000Y-57150000D01*
X133670000Y-54610000D02*
X133670000Y-56830000D01*
X133030000Y-57470000D02*
X133350000Y-57150000D01*
X130490000Y-57470000D02*
X133030000Y-57470000D01*
X135795010Y-58325010D02*
X138590000Y-61120000D01*
X133350000Y-57150000D02*
X134525010Y-58325010D01*
X134525010Y-58325010D02*
X135795010Y-58325010D01*
X138590000Y-61120000D02*
X138524990Y-61185010D01*
X139700000Y-60010000D02*
X138590000Y-61120000D01*
X137517500Y-66040000D02*
X134620000Y-66040000D01*
X136529990Y-69085044D02*
X138483784Y-67131250D01*
X136529990Y-71759990D02*
X136529990Y-69085044D01*
X138430000Y-73660000D02*
X136529990Y-71759990D01*
X138430000Y-77470000D02*
X138430000Y-73660000D01*
X138608750Y-67131250D02*
X137517500Y-66040000D01*
X138483784Y-67131250D02*
X138608750Y-67131250D01*
X141327500Y-69850000D02*
X138608750Y-67131250D01*
X139700000Y-72390000D02*
X138430000Y-73660000D01*
D25*
X144285010Y-54464990D02*
X144140000Y-54610000D01*
X146080692Y-54464990D02*
X144285010Y-54464990D01*
X146340000Y-54724298D02*
X146080692Y-54464990D01*
X146340000Y-55527500D02*
X146340000Y-54724298D01*
D24*
X167640000Y-77827500D02*
X167282500Y-77470000D01*
X167640000Y-81280000D02*
X167640000Y-77827500D01*
X165017499Y-53309999D02*
X165152500Y-53445000D01*
X162590001Y-53309999D02*
X165017499Y-53309999D01*
D23*
%TO.N,Net-(C1-Pad1)*%
X141920000Y-72390000D02*
X142240000Y-72390000D01*
X139380000Y-69850000D02*
X141920000Y-72390000D01*
%TO.N,Net-(R6-Pad1)*%
X143152500Y-72032500D02*
X143510000Y-72390000D01*
X143152500Y-69850000D02*
X143152500Y-72032500D01*
%TO.N,Net-(R3-Pad2)*%
X145137500Y-71477500D02*
X146050000Y-72390000D01*
X145137500Y-69850000D02*
X145137500Y-71477500D01*
D25*
%TO.N,+3V3*%
X144427500Y-56940000D02*
X145840000Y-55527500D01*
X146594999Y-58304297D02*
X146594999Y-58964999D01*
X145230702Y-56940000D02*
X146594999Y-58304297D01*
X144427500Y-56940000D02*
X145230702Y-56940000D01*
X146594999Y-58964999D02*
X147320000Y-59690000D01*
X147320000Y-59690000D02*
X147320000Y-59690000D01*
X151340000Y-56940000D02*
X151130000Y-57150000D01*
X152752500Y-56940000D02*
X151340000Y-56940000D01*
X146520702Y-62230000D02*
X147320000Y-62230000D01*
X145230702Y-60940000D02*
X146520702Y-62230000D01*
X144427500Y-60940000D02*
X145230702Y-60940000D01*
X151315010Y-63827510D02*
X151340000Y-63852500D01*
X151315010Y-63024308D02*
X151315010Y-63827510D01*
X151290010Y-62999308D02*
X151315010Y-63024308D01*
X151130000Y-57150000D02*
X151290010Y-57310010D01*
X151340000Y-59900000D02*
X151130000Y-59690000D01*
X151340000Y-63852500D02*
X151340000Y-59900000D01*
X153030000Y-65542500D02*
X153030000Y-66040000D01*
X151340000Y-63852500D02*
X153030000Y-65542500D01*
D24*
X146962500Y-72032500D02*
X147320000Y-72390000D01*
X146962500Y-69850000D02*
X146962500Y-72032500D01*
D25*
X140670000Y-60940000D02*
X139700000Y-61910000D01*
X144427500Y-60940000D02*
X140670000Y-60940000D01*
D24*
X145812490Y-68699990D02*
X146962500Y-69850000D01*
X142371988Y-68699990D02*
X145812490Y-68699990D01*
X139700000Y-66028002D02*
X142371988Y-68699990D01*
X160987500Y-63142500D02*
X163425000Y-60705000D01*
X158769999Y-76219999D02*
X160020000Y-77470000D01*
X158769999Y-67329999D02*
X158769999Y-76219999D01*
X157480000Y-66040000D02*
X158769999Y-67329999D01*
X162560000Y-80010000D02*
X160020000Y-77470000D01*
X162560000Y-81280000D02*
X162560000Y-80010000D01*
X157480000Y-53340000D02*
X157480000Y-53340000D01*
X160020000Y-50800000D02*
X157480000Y-53340000D01*
X157480000Y-53340000D02*
X157480000Y-56237500D01*
D25*
X152720000Y-56907500D02*
X152752500Y-56940000D01*
X152720000Y-54610000D02*
X152720000Y-55560000D01*
X152720000Y-55560000D02*
X152720000Y-56907500D01*
D24*
X157480000Y-53340000D02*
X157480000Y-53340000D01*
D25*
X143300000Y-56940000D02*
X142240000Y-55880000D01*
X144427500Y-56940000D02*
X143300000Y-56940000D01*
D24*
X167640000Y-62559998D02*
X167385000Y-62304998D01*
X167640000Y-65410000D02*
X167640000Y-62559998D01*
X167385000Y-60705000D02*
X169725000Y-60705000D01*
X167385000Y-62304998D02*
X167385000Y-60705000D01*
X163425000Y-60705000D02*
X167385000Y-60705000D01*
X139700000Y-63500000D02*
X138430000Y-64770000D01*
X139700000Y-61910000D02*
X139700000Y-63500000D01*
X139700000Y-63500000D02*
X139700000Y-66028002D01*
X138430000Y-64770000D02*
X138430000Y-64770000D01*
X135175000Y-60960000D02*
X137160000Y-60960000D01*
X137160000Y-60960000D02*
X137160000Y-60960000D01*
D25*
X142240000Y-55880000D02*
X142240000Y-54610000D01*
D24*
X162815000Y-60705000D02*
X163425000Y-60705000D01*
X157480000Y-66040000D02*
X162815000Y-60705000D01*
X153392500Y-66040000D02*
X155932500Y-63500000D01*
X153030000Y-66040000D02*
X153392500Y-66040000D01*
X155932500Y-64492500D02*
X157480000Y-66040000D01*
X155932500Y-63500000D02*
X155932500Y-64492500D01*
%TO.N,+5V*%
X169725000Y-58425000D02*
X167645000Y-58425000D01*
X167645000Y-58425000D02*
X167645000Y-58425000D01*
X143380000Y-77470000D02*
X142240000Y-77470000D01*
X142240000Y-77470000D02*
X140330000Y-77470000D01*
X168780000Y-57480000D02*
X169725000Y-58425000D01*
X168780000Y-55880000D02*
X168780000Y-57480000D01*
D23*
%TO.N,RX1*%
X154332500Y-59440000D02*
X152752500Y-59440000D01*
X154332500Y-60352500D02*
X154940000Y-60960000D01*
X154332500Y-59440000D02*
X154332500Y-60352500D01*
X157757500Y-63500000D02*
X158750000Y-63500000D01*
X158750000Y-63500000D02*
X159385000Y-62865000D01*
X159385000Y-62865000D02*
X159385000Y-62865000D01*
%TO.N,GPIOB9*%
X140970000Y-54610000D02*
X140970000Y-54610000D01*
X141429325Y-53584990D02*
X140970000Y-54044315D01*
X145801746Y-53584990D02*
X141429325Y-53584990D01*
X140970000Y-54044315D02*
X140970000Y-54610000D01*
X146840000Y-54623244D02*
X145801746Y-53584990D01*
X146840000Y-55527500D02*
X146840000Y-54623244D01*
%TO.N,I2C_SDA1*%
X135890000Y-50800000D02*
X137819999Y-52729999D01*
X137819999Y-52729999D02*
X139870001Y-52729999D01*
X147154310Y-53740008D02*
X146754302Y-53340000D01*
X147320354Y-53740008D02*
X147154310Y-53740008D01*
X148340000Y-54759654D02*
X147320354Y-53740008D01*
X148340000Y-55527500D02*
X148340000Y-54759654D01*
X140324982Y-53184980D02*
X139870001Y-52729999D01*
X145967435Y-53184980D02*
X140324982Y-53184980D01*
X146122455Y-53340000D02*
X145967435Y-53184980D01*
X146754302Y-53340000D02*
X146122455Y-53340000D01*
%TO.N,I2C_SCL1*%
X148840000Y-56295346D02*
X149694654Y-57150000D01*
X148840000Y-55527500D02*
X148840000Y-56295346D01*
X149694654Y-57150000D02*
X149860000Y-57150000D01*
X149860000Y-57150000D02*
X149860000Y-57150000D01*
%TO.N,SPI_MOSI1*%
X149340000Y-54759654D02*
X149340000Y-55527500D01*
X147920346Y-53340000D02*
X149340000Y-54759654D01*
X147320000Y-53340000D02*
X147920346Y-53340000D01*
X146730021Y-52750021D02*
X147320000Y-53340000D01*
X145732321Y-52750021D02*
X146730021Y-52750021D01*
X144932301Y-51950001D02*
X145732321Y-52750021D01*
X142120001Y-51950001D02*
X144932301Y-51950001D01*
X140970000Y-50800000D02*
X142120001Y-51950001D01*
%TO.N,SPI_MISO1*%
X144347998Y-50800000D02*
X143510000Y-50800000D01*
X149840000Y-54590000D02*
X149840000Y-55527500D01*
X147600011Y-52350011D02*
X149840000Y-54590000D01*
X145898010Y-52350011D02*
X147600011Y-52350011D01*
X144347999Y-50800000D02*
X145898010Y-52350011D01*
X143510000Y-50800000D02*
X144347999Y-50800000D01*
%TO.N,SPI_SCK1*%
X150290010Y-55477510D02*
X150340000Y-55527500D01*
X150290010Y-54004008D02*
X150290010Y-55477510D01*
X148236003Y-51950001D02*
X150290010Y-54004008D01*
X147200001Y-51950001D02*
X148236003Y-51950001D01*
X146050000Y-50800000D02*
X147200001Y-51950001D01*
%TO.N,SPI_NSS1*%
X150840000Y-54320000D02*
X150840000Y-55527500D01*
X150730001Y-54210001D02*
X150840000Y-54320000D01*
X150730001Y-53739999D02*
X150730001Y-54210001D01*
X151130000Y-53340000D02*
X150730001Y-53739999D01*
%TO.N,SWCLK*%
X151340000Y-54400000D02*
X151340000Y-55527500D01*
X154940000Y-50800000D02*
X151340000Y-54400000D01*
%TO.N,SWDIO*%
X152752500Y-57940000D02*
X155420000Y-57940000D01*
X155420000Y-57940000D02*
X156210000Y-57150000D01*
X156210000Y-52070000D02*
X157480000Y-50800000D01*
X156210000Y-57150000D02*
X156210000Y-52070000D01*
%TO.N,PA12*%
X157102500Y-58440000D02*
X152752500Y-58440000D01*
X157480000Y-58062500D02*
X157102500Y-58440000D01*
X159465000Y-56077500D02*
X157480000Y-58062500D01*
X159465000Y-55880000D02*
X159465000Y-56077500D01*
%TO.N,PA11*%
X155460000Y-58940000D02*
X156210000Y-59690000D01*
X152752500Y-58940000D02*
X155460000Y-58940000D01*
X156210000Y-60960000D02*
X156210000Y-59690000D01*
%TO.N,SPI_MOSI2*%
X152752500Y-60940000D02*
X153650000Y-60940000D01*
X153650000Y-60940000D02*
X154940000Y-62230000D01*
X154940000Y-62230000D02*
X154940000Y-62230000D01*
X153789999Y-73779999D02*
X153670000Y-73660000D01*
X154387999Y-78620001D02*
X153789999Y-78022001D01*
X155492001Y-78620001D02*
X154387999Y-78620001D01*
X156090001Y-78022001D02*
X155492001Y-78620001D01*
X156090001Y-79890001D02*
X156090001Y-78022001D01*
X153789999Y-78022001D02*
X153789999Y-73779999D01*
X157480000Y-81280000D02*
X156090001Y-79890001D01*
%TO.N,SPI_SCK2*%
X158869999Y-82430001D02*
X160020000Y-81280000D01*
X154387999Y-82430001D02*
X158869999Y-82430001D01*
X153789999Y-80967997D02*
X153789999Y-81832001D01*
X153789999Y-81832001D02*
X154387999Y-82430001D01*
X152819997Y-80129999D02*
X152952001Y-80129999D01*
X152952001Y-80129999D02*
X153789999Y-80967997D01*
X152254298Y-80129999D02*
X152952001Y-80129999D01*
X150729990Y-78605691D02*
X152254298Y-80129999D01*
X150729990Y-74060010D02*
X150729990Y-78605691D01*
X151130000Y-73660000D02*
X150729990Y-74060010D01*
X153790010Y-62209664D02*
X153790010Y-63379990D01*
X153520346Y-61940000D02*
X153790010Y-62209664D01*
X152752500Y-61940000D02*
X153520346Y-61940000D01*
X153790010Y-63379990D02*
X153670000Y-63500000D01*
X153670000Y-63500000D02*
X153670000Y-63500000D01*
%TO.N,SPI_NSS2*%
X149860000Y-78740000D02*
X152400000Y-81280000D01*
X149860000Y-73660000D02*
X149860000Y-78740000D01*
X152610000Y-62440000D02*
X152400000Y-62650000D01*
X152752500Y-62440000D02*
X152610000Y-62440000D01*
X152400000Y-62650000D02*
X152400000Y-63500000D01*
X152400000Y-63500000D02*
X152400000Y-63500000D01*
%TO.N,GPIOB11*%
X156379999Y-76369999D02*
X157480000Y-77470000D01*
X156379999Y-72227134D02*
X156379999Y-76369999D01*
X154872855Y-70719990D02*
X156379999Y-72227134D01*
X151999990Y-70719990D02*
X154872855Y-70719990D01*
X150260010Y-68980010D02*
X151999990Y-70719990D01*
X150260010Y-65407156D02*
X150260010Y-68980010D01*
X150340000Y-65327166D02*
X150260010Y-65407156D01*
X150340000Y-63852500D02*
X150340000Y-65327166D01*
%TO.N,GPIOB10*%
X149860000Y-63872500D02*
X149840000Y-63852500D01*
X149860000Y-71120000D02*
X149860000Y-63872500D01*
X154940000Y-71352834D02*
X154707166Y-71120000D01*
X154707166Y-71120000D02*
X149860000Y-71120000D01*
X154940000Y-77470000D02*
X154940000Y-71352834D01*
%TO.N,LCD_DC*%
X151830001Y-71820001D02*
X151530010Y-71520010D01*
X151830001Y-73996001D02*
X151830001Y-71820001D01*
X151530010Y-71520010D02*
X149694311Y-71520010D01*
X151130000Y-74696002D02*
X151830001Y-73996001D01*
X151130000Y-78440002D02*
X151130000Y-74696002D01*
X151309999Y-78620001D02*
X151130000Y-78440002D01*
X152280001Y-78620001D02*
X151309999Y-78620001D01*
X149694311Y-71520010D02*
X148790010Y-70615709D01*
X154940000Y-81280000D02*
X152280001Y-78620001D01*
X148840000Y-65790000D02*
X148840000Y-63852500D01*
X148790010Y-65839990D02*
X148840000Y-65790000D01*
X148790010Y-70615709D02*
X148790010Y-65839990D01*
%TO.N,LCD_RST*%
X148340000Y-79760000D02*
X149860000Y-81280000D01*
X148340000Y-63852500D02*
X148340000Y-79760000D01*
D25*
%TO.N,Net-(C6-Pad1)*%
X141498190Y-57730000D02*
X138430000Y-57730000D01*
X143208190Y-59440000D02*
X141498190Y-57730000D01*
X144427500Y-59440000D02*
X143208190Y-59440000D01*
D24*
X137850000Y-57150000D02*
X138430000Y-57730000D01*
X135250000Y-57150000D02*
X137850000Y-57150000D01*
D25*
%TO.N,Net-(C8-Pad1)*%
X138630000Y-54030000D02*
X138430000Y-54030000D01*
X143515010Y-58915010D02*
X138630000Y-54030000D01*
X145255692Y-58915010D02*
X143515010Y-58915010D01*
X145230702Y-58940000D02*
X145255692Y-58915010D01*
X144427500Y-58940000D02*
X145230702Y-58940000D01*
D24*
X137850000Y-54610000D02*
X138430000Y-54030000D01*
X135570000Y-54610000D02*
X137850000Y-54610000D01*
%TO.N,Net-(C9-Pad1)*%
X131760000Y-59370000D02*
X133350000Y-60960000D01*
X130490000Y-59370000D02*
X131760000Y-59370000D01*
D25*
X144427500Y-59940000D02*
X145800000Y-59940000D01*
X145800000Y-59940000D02*
X146050000Y-59690000D01*
X146050000Y-59690000D02*
X146050000Y-59690000D01*
X130810000Y-60960000D02*
X132080000Y-59690000D01*
D24*
%TO.N,Net-(D1-Pad2)*%
X146050000Y-77470000D02*
X146180000Y-77470000D01*
X142240000Y-81280000D02*
X146050000Y-77470000D01*
D26*
%TO.N,Net-(D2-Pad2)*%
X170354990Y-54654990D02*
X171580000Y-55880000D01*
X169074990Y-54654990D02*
X170354990Y-54654990D01*
X168940000Y-54520000D02*
X169074990Y-54654990D01*
X168940000Y-53530000D02*
X168940000Y-54520000D01*
D24*
%TO.N,+9V*%
X130779999Y-82490001D02*
X130779999Y-74960001D01*
X130869999Y-82580001D02*
X130779999Y-82490001D01*
X143479999Y-82580001D02*
X130869999Y-82580001D01*
X144780000Y-81280000D02*
X143479999Y-82580001D01*
X124460000Y-68640002D02*
X124460000Y-68580000D01*
X130779999Y-74960001D02*
X124460000Y-68640002D01*
D23*
%TO.N,Net-(J2-Pad3)*%
X161290000Y-55880000D02*
X164825002Y-55880000D01*
X166095002Y-55880000D02*
X164825002Y-55880000D01*
X167640000Y-54335002D02*
X166095002Y-55880000D01*
X167640000Y-53530000D02*
X167640000Y-54335002D01*
%TO.N,Net-(J2-Pad2)*%
X168290000Y-53530000D02*
X168290000Y-54335002D01*
X168290000Y-54250701D02*
X168290000Y-53530000D01*
X159984999Y-57504999D02*
X165035702Y-57504999D01*
X165035702Y-57504999D02*
X168290000Y-54250701D01*
X158035000Y-59454998D02*
X159984999Y-57504999D01*
X158035000Y-60960000D02*
X158035000Y-59454998D01*
%TO.N,Net-(J5-Pad7)*%
X164545000Y-80725000D02*
X165100000Y-81280000D01*
D26*
X165100000Y-77827500D02*
X165457500Y-77470000D01*
X165100000Y-81280000D02*
X165100000Y-77827500D01*
D24*
%TO.N,AUDIO_OUT*%
X132080000Y-75645000D02*
X132795000Y-74930000D01*
X132080000Y-81280000D02*
X132080000Y-75645000D01*
X132795000Y-74375000D02*
X124460000Y-66040000D01*
X132795000Y-74930000D02*
X132795000Y-74375000D01*
%TD*%
M02*
